<?xml version="1.0" encoding="UTF-8"?>
<svg width="500px" height="206px" viewBox="0 0 500 206" version="1.1" xmlns="http://www.w3.org/2000/svg" xmlns:xlink="http://www.w3.org/1999/xlink">
    <!-- Generator: Sketch 60 (88103) - https://sketch.com -->
    <title>Group 2</title>
    <desc>Created with Sketch.</desc>
    <g id="Page-1" stroke="none" stroke-width="1" fill="none" fill-rule="evenodd">
        <g id="Group-2" transform="translate(0.000000, 3.000000)">
            <g id="Group" fill="#06B6D4">
                <path d="M80.3807026,0 C37.5126746,0 10.717007,21.2912203 0,63.8736608 C16.0786607,42.5824406 34.834998,34.5998068 56.2627115,39.9194642 C68.4981187,42.9538723 77.2430956,51.7675057 86.9142336,61.5254571 C102.677873,77.4151791 120.917577,95.8041958 160.767706,95.8041958 C203.635733,95.8041958 230.431401,74.519271 241.148408,31.9368304 C225.069747,53.2280507 206.31341,61.2106844 184.879396,55.8910271 C172.650289,52.8503235 163.905313,44.0366901 154.234175,34.2850342 C138.470535,18.3953121 120.224531,0 80.3807026,0 Z" id="Shape"></path>
            </g>
            <g id="Group" transform="translate(379.370629, 47.902098) scale(-1, 1) translate(-379.370629, -47.902098) translate(258.741259, 0.000000)" fill="#253234">
                <path d="M80.3807026,0 C37.5126746,0 10.717007,21.2912203 0,63.8736608 C16.0786607,42.5824406 34.834998,34.5998068 56.2627115,39.9194642 C68.4981187,42.9538723 77.2430956,51.7675057 86.9142336,61.5254571 C102.677873,77.4151791 120.917577,95.8041958 160.767706,95.8041958 C203.635733,95.8041958 230.431401,74.519271 241.148408,31.9368304 C225.069747,53.2280507 206.31341,61.2106844 184.879396,55.8910271 C172.650289,52.8503235 163.905313,44.0366901 154.234175,34.2850342 C138.470535,18.3953121 120.224531,0 80.3807026,0 Z" id="Shape"></path>
            </g>
            <line x1="250" y1="0" x2="250" y2="95.8041958" id="Line" stroke="#253234" stroke-width="5" stroke-linecap="square"></line>
            <g id="tailwindcss-flip" transform="translate(0.000000, 131.468531)" fill-rule="nonzero">
                <path d="M16.8477115,56.4438433 C19.0076745,56.4438433 21.1076385,56.1336468 23.1476036,55.5132536 L23.1476036,55.5132536 L23.1476036,47.6748252 C22.2596188,47.8418541 21.2396362,47.9253686 20.087656,47.9253686 C18.5276827,47.9253686 17.4717008,47.615172 16.9197102,46.9947789 C16.3677197,46.3743857 16.0917244,45.348351 16.0917244,43.9166745 L16.0917244,43.9166745 L16.0917244,24.5890427 L22.7516103,24.5890427 L22.7516103,17.0011576 L16.0917244,17.0011576 L16.0917244,7.48050936 L5.68790258,7.48050936 L5.68790258,17.0011576 L0,17.0011576 L0,24.5890427 L5.68790258,24.5890427 L5.68790258,45.4557267 C5.83190012,52.7811378 9.55183641,56.4438433 16.8477115,56.4438433 Z M40.2473107,56.4438433 C44.2792416,56.4438433 47.5551855,55.0479588 50.0751424,52.2561898 C50.2911387,53.6401436 50.6391327,54.7974154 51.1191245,55.7280051 L51.1191245,55.7280051 L61.6309445,55.7280051 L61.6309445,55.1195426 C60.6229617,53.234502 60.1069706,50.4546636 60.082971,46.7800274 L60.082971,46.7800274 L60.082971,29.9936212 C60.082971,25.6508694 58.6729951,22.2804645 55.8530434,19.8824064 C53.0330917,17.4843484 49.223157,16.2853194 44.4232392,16.2853194 C41.2552934,16.2853194 38.3993423,16.8281634 35.8553859,17.9138514 C33.3114295,18.9995393 31.3434632,20.4968342 29.951487,22.4057362 C28.5595109,24.3146381 27.8635228,26.3905689 27.8635228,28.6335286 L27.8635228,28.6335286 L38.2673446,28.6335286 C38.2673446,27.1779909 38.7653361,26.0326498 39.761319,25.1975052 C40.757302,24.3623606 42.1312784,23.9447883 43.8832484,23.9447883 C45.8752143,23.9447883 47.3331893,24.481667 48.2571735,25.5554243 C49.1811577,26.6291816 49.6431498,28.0608581 49.6431498,29.8504536 L49.6431498,29.8504536 L49.6431498,32.0695521 L44.8552318,32.0695521 C39.0713308,32.0934133 34.6494066,33.2029626 31.589459,35.3981998 C28.5295114,37.593437 26.9995376,40.7431251 26.9995376,44.8472642 C26.9995376,48.1878426 28.2535161,50.9557503 30.7614732,53.1509875 C33.2694302,55.3462247 36.431376,56.4438433 40.2473107,56.4438433 Z M42.5152719,48.533831 C40.931299,48.533831 39.6833204,48.1162587 38.771336,47.2811142 C37.8593516,46.4459696 37.4033594,45.3841429 37.4033594,44.0956341 L37.4033594,44.0956341 L37.4393588,43.4871716 C37.775353,39.9079805 40.5473056,38.118385 45.7552164,38.118385 L45.7552164,38.118385 L49.6431498,38.118385 L49.6431498,44.7756804 C49.0191605,45.9210215 48.0591769,46.8337153 46.7631991,47.5137616 C45.4672213,48.1938079 44.0512455,48.533831 42.5152719,48.533831 Z M73.8347355,12.3482092 C75.5867054,12.3482092 76.9966813,11.8471225 78.064663,10.844949 C79.1326447,9.84277547 79.6666356,8.55426668 79.6666356,6.9794226 C79.6666356,5.4284398 79.1386446,4.15186165 78.0826627,3.14968815 C77.0266808,2.14751465 75.610705,1.6464279 73.8347355,1.6464279 C72.0347663,1.6464279 70.6127906,2.14751465 69.5688085,3.14968815 C68.5248264,4.15186165 68.0028353,5.4284398 68.0028353,6.9794226 C68.0028353,8.55426668 68.5368262,9.84277547 69.6048079,10.844949 C70.6727896,11.8471225 72.0827655,12.3482092 73.8347355,12.3482092 Z M79.0546461,55.7280051 L79.0546461,17.0011576 L68.6148249,17.0011576 L68.6148249,55.7280051 L79.0546461,55.7280051 Z M98.6023113,55.7280051 L98.6023113,0.751630127 L88.1624901,0.751630127 L88.1624901,55.7280051 L98.6023113,55.7280051 Z M122.793897,55.7280051 L130.173771,31.3537139 L137.553644,55.7280051 L146.265495,55.7280051 L156.201325,17.0011576 L146.157497,17.0011576 L141.045584,41.6617842 L133.953706,17.0011576 L126.429835,17.0011576 L119.301957,41.6259923 L114.226044,17.0011576 L104.182216,17.0011576 L114.118046,55.7280051 L122.793897,55.7280051 Z M167.109138,12.3482092 C168.861108,12.3482092 170.271084,11.8471225 171.339066,10.844949 C172.407047,9.84277547 172.941038,8.55426668 172.941038,6.9794226 C172.941038,5.4284398 172.413047,4.15186165 171.357065,3.14968815 C170.301083,2.14751465 168.885108,1.6464279 167.109138,1.6464279 C165.309169,1.6464279 163.887193,2.14751465 162.843211,3.14968815 C161.799229,4.15186165 161.277238,5.4284398 161.277238,6.9794226 C161.277238,8.55426668 161.811229,9.84277547 162.87921,10.844949 C163.947192,11.8471225 165.357168,12.3482092 167.109138,12.3482092 Z M172.329049,55.7280051 L172.329049,17.0011576 L161.889227,17.0011576 L161.889227,55.7280051 L172.329049,55.7280051 Z M191.084727,55.7280051 L191.084727,28.4187772 C192.548702,25.9372047 194.744665,24.6964184 197.672615,24.6964184 C199.904576,24.6964184 201.500549,25.1915399 202.460533,26.1817827 C203.420516,27.1720256 203.900508,28.7647656 203.900508,30.9600028 L203.900508,30.9600028 L203.900508,55.7280051 L214.30433,55.7280051 L214.30433,30.7094595 C214.25633,25.9133434 213.224348,22.3102911 211.208383,19.9003024 C209.192417,17.4903137 206.12047,16.2853194 201.992541,16.2853194 C197.312621,16.2853194 193.580685,18.0152618 190.796732,21.4751465 L190.796732,21.4751465 L190.472738,17.0011576 L180.680906,17.0011576 L180.680906,55.7280051 L191.084727,55.7280051 Z M235.759962,56.4438433 C239.839892,56.4438433 243.175835,54.8332073 245.767791,51.6119354 L245.767791,51.6119354 L246.271782,55.7280051 L255.667621,55.7280051 L255.667621,0.751630127 L245.2278,0.751630127 L245.2278,20.5087649 C242.755842,17.6931346 239.623896,16.2853194 235.831961,16.2853194 C231.104042,16.2853194 227.378106,18.0749149 224.654152,21.654106 C221.930199,25.2332971 220.568222,30.0413438 220.568222,36.0782461 C220.568222,42.4730675 221.954199,47.466039 224.726151,51.0571607 C227.498104,54.6482825 231.176041,56.4438433 235.759962,56.4438433 Z M238.423917,48.0685362 C235.999958,48.0685362 234.15199,47.1021546 232.880012,45.1693914 C231.608033,43.2366282 230.972044,40.4567898 230.972044,36.8298762 C230.972044,28.7409044 233.480001,24.6964184 238.495915,24.6964184 C241.687861,24.6964184 243.931822,26.0445804 245.2278,28.7409044 L245.2278,28.7409044 L245.2278,44.0240503 C243.907823,46.7203742 241.639861,48.0685362 238.423917,48.0685362 Z M280.111203,56.4438433 C283.087152,56.4438433 285.805105,55.8413462 288.265063,54.6363518 C290.725021,53.4313575 292.662988,51.737207 294.078963,49.5539005 C295.494939,47.3705939 296.214927,44.9665706 296.238926,42.3418305 L296.238926,42.3418305 L286.483093,42.3418305 C286.435094,44.0837035 285.811105,45.479588 284.611126,46.529484 C283.411146,47.5793801 281.851173,48.1043281 279.931206,48.1043281 C277.435248,48.1043281 275.57528,47.2333916 274.351301,45.4915186 C273.127322,43.7496456 272.515333,40.8862928 272.515333,36.90146 L272.515333,36.90146 L272.515333,35.8277027 C272.515333,31.8905925 273.133322,29.0451356 274.369301,27.291332 C275.60528,25.5375284 277.435248,24.6606265 279.859207,24.6606265 C281.827173,24.6606265 283.411146,25.286985 284.611126,26.5397019 C285.811105,27.7924187 286.435094,29.4209507 286.483093,31.4252977 L286.483093,31.4252977 L296.238926,31.4252977 C296.190927,26.8439331 294.696953,23.1752622 291.757003,20.4192851 C288.817053,17.663308 284.91112,16.2853194 280.039204,16.2853194 C274.471299,16.2853194 270.091374,18.0629843 266.899429,21.6183141 C263.707484,25.1736439 262.111511,29.9339681 262.111511,35.8992865 L262.111511,35.8992865 L262.111511,36.5793328 C262.111511,42.783264 263.719483,47.6449986 266.935428,51.1645365 C270.151373,54.6840744 274.543298,56.4438433 280.111203,56.4438433 Z M317.010571,56.4438433 C321.834488,56.4438433 325.770421,55.35219 328.818368,53.1688835 C331.866316,50.9855769 333.39029,48.1281894 333.39029,44.5967208 C333.39029,39.6574372 330.642337,36.1856218 325.146431,34.1812748 C323.370462,33.5370204 321.186499,32.9583845 318.594544,32.4453671 C316.002588,31.9323497 314.160619,31.3238873 313.068638,30.6199797 C311.976657,29.9160721 311.430666,28.9914477 311.430666,27.8461066 C311.430666,26.6291816 311.910658,25.6270081 312.870642,24.8395861 C313.830625,24.0521641 315.186602,23.658453 316.938572,23.658453 C318.978537,23.658453 320.478511,24.1416438 321.438495,25.1080254 C322.398478,26.074407 322.87847,27.2972973 322.87847,28.7766963 L322.87847,28.7766963 L333.282292,28.7766963 C333.282292,25.0781988 331.800317,22.0716783 328.836368,19.7571348 C325.872419,17.4425912 321.918487,16.2853194 316.974571,16.2853194 C312.342651,16.2853194 308.592715,17.4366259 305.724764,19.7392388 C302.856813,22.0418517 301.422838,24.9111699 301.422838,28.3471933 C301.422838,34.240928 306.054758,38.1541769 315.3186,40.0869401 C318.102552,40.6596107 320.124517,41.3098304 321.384496,42.0375992 C322.644474,42.7653681 323.274463,43.7615763 323.274463,45.0262238 C323.274463,46.2431487 322.764472,47.2274263 321.74449,47.9790564 C320.724507,48.7306865 319.218533,49.1065016 317.226567,49.1065016 C315.090604,49.1065016 313.386633,48.6173455 312.114654,47.6390333 C310.842676,46.660721 310.158688,45.2529059 310.06269,43.4155878 L310.06269,43.4155878 L300.198859,43.4155878 C300.198859,45.7539926 300.918846,47.9313339 302.358822,49.9476115 C303.798797,51.9638892 305.784763,53.5506639 308.31672,54.7079356 C310.848676,55.8652074 313.746627,56.4438433 317.010571,56.4438433 Z M354.917921,56.4438433 C359.741839,56.4438433 363.677771,55.35219 366.725719,53.1688835 C369.773667,50.9855769 371.297641,48.1281894 371.297641,44.5967208 C371.297641,39.6574372 368.549688,36.1856218 363.053782,34.1812748 C361.277812,33.5370204 359.09385,32.9583845 356.501894,32.4453671 C353.909939,31.9323497 352.06797,31.3238873 350.975989,30.6199797 C349.884008,29.9160721 349.338017,28.9914477 349.338017,27.8461066 C349.338017,26.6291816 349.818009,25.6270081 350.777992,24.8395861 C351.737976,24.0521641 353.093953,23.658453 354.845923,23.658453 C356.885888,23.658453 358.385862,24.1416438 359.345846,25.1080254 C360.305829,26.074407 360.785821,27.2972973 360.785821,28.7766963 L360.785821,28.7766963 L371.189643,28.7766963 C371.189643,25.0781988 369.707668,22.0716783 366.743719,19.7571348 C363.77977,17.4425912 359.825837,16.2853194 354.881922,16.2853194 C350.250001,16.2853194 346.500066,17.4366259 343.632115,19.7392388 C340.764164,22.0418517 339.330188,24.9111699 339.330188,28.3471933 C339.330188,34.240928 343.962109,38.1541769 353.22595,40.0869401 C356.009903,40.6596107 358.031868,41.3098304 359.291846,42.0375992 C360.551825,42.7653681 361.181814,43.7615763 361.181814,45.0262238 C361.181814,46.2431487 360.671823,47.2274263 359.65184,47.9790564 C358.631858,48.7306865 357.125884,49.1065016 355.133918,49.1065016 C352.997954,49.1065016 351.293983,48.6173455 350.022005,47.6390333 C348.750027,46.660721 348.066039,45.2529059 347.97004,43.4155878 L347.97004,43.4155878 L338.106209,43.4155878 C338.106209,45.7539926 338.826197,47.9313339 340.266172,49.9476115 C341.706148,51.9638892 343.692114,53.5506639 346.22407,54.7079356 C348.756027,55.8652074 351.653977,56.4438433 354.917921,56.4438433 Z" id="tailwindcss" fill="#253234"></path>
                <path d="M409.636984,55.7280051 L409.636984,24.5890427 L417.376852,24.5890427 L417.376852,17.0011576 L409.636984,17.0011576 L409.636984,14.3883481 C409.636984,10.4035154 411.988944,8.41109904 416.692863,8.41109904 C418.468833,8.41109904 420.3888,8.53040541 422.452765,8.76901814 L422.452765,8.76901814 L422.452765,55.7280051 L432.892586,55.7280051 L432.892586,1.14534115 C424.756725,0.381780382 418.876826,0 415.252888,0 C410.164975,0 406.229043,1.21095965 403.44509,3.63287895 C400.661138,6.05479824 399.245162,9.50871763 399.197163,13.9946371 L399.197163,13.9946371 L399.197163,17.0011576 L393.401262,17.0011576 L393.401262,24.5890427 L399.197163,24.5890427 L399.197163,55.7280051 L409.636984,55.7280051 Z M447.292339,12.3482092 C449.044309,12.3482092 450.454285,11.8471225 451.522267,10.844949 C452.590249,9.84277547 453.124239,8.55426668 453.124239,6.9794226 C453.124239,5.4284398 452.596248,4.15186165 451.540267,3.14968815 C450.484285,2.14751465 449.068309,1.6464279 447.292339,1.6464279 C445.49237,1.6464279 444.070395,2.14751465 443.026412,3.14968815 C441.98243,4.15186165 441.460439,5.4284398 441.460439,6.9794226 C441.460439,8.55426668 441.99443,9.84277547 443.062412,10.844949 C444.130393,11.8471225 445.540369,12.3482092 447.292339,12.3482092 Z M452.51225,55.7280051 L452.51225,17.0011576 L442.072429,17.0011576 L442.072429,55.7280051 L452.51225,55.7280051 Z M471.483925,70.61744 L471.483925,52.3635655 C473.907883,55.0837507 477.087829,56.4438433 481.023762,56.4438433 C485.655682,56.4438433 489.333619,54.6482825 492.057573,51.0571607 C494.781526,47.466039 496.143503,42.6878189 496.143503,36.7225005 L496.143503,36.7225005 L496.143503,36.1856218 C496.143503,29.9816906 494.811525,25.1139907 492.147571,21.5825222 C489.483617,18.0510537 485.751681,16.2853194 480.951763,16.2853194 C476.895832,16.2853194 473.607889,17.7885797 471.087932,20.7951002 L471.087932,20.7951002 L470.727938,17.0011576 L461.080103,17.0011576 L461.080103,70.61744 L471.483925,70.61744 Z M478.287808,48.1043281 C475.023864,48.1043281 472.755903,46.82775 471.483925,44.2745936 L471.483925,44.2745936 L471.483925,28.4187772 C472.707904,25.9372047 474.951866,24.6964184 478.21581,24.6964184 C480.663768,24.6964184 482.529736,25.6747307 483.813714,27.6313551 C485.097692,29.5879796 485.739681,32.367818 485.739681,35.9708703 C485.739681,44.0598422 483.255723,48.1043281 478.287808,48.1043281 Z" id="fip" fill="#06B6D4"></path>
            </g>
        </g>
    </g>
</svg>